<!--?xml version="1.0" encoding="utf-8"?-->
<!-- Save as "wavy-green-background-sharp.svg" -->
<svg xmlns="http://www.w3.org/2000/svg" viewBox="0 0 1920 1080" preserveAspectRatio="xMidYMid slice" width="1920" height="1080" role="img" aria-label="Green wavy gradient background">

  <defs>
    <!-- main diagonal gradient -->
    <linearGradient id="bgGrad" x1="0%" y1="0%" x2="100%" y2="100%">
      <stop offset="0%" stop-color="#d8ffe0"></stop>
      <stop offset="40%" stop-color="#b7ffb6"></stop>
      <stop offset="100%" stop-color="#5cc65c"></stop>
    </linearGradient>

    <!-- gentle vignette -->
    <radialGradient id="vignette" cx="50%" cy="30%" r="80%">
      <stop offset="55%" stop-color="#000000" stop-opacity="0"></stop>
      <stop offset="100%" stop-color="#000000" stop-opacity="0.08"></stop>
    </radialGradient>

    <!-- reduced blur for sharper edges -->
    <filter id="waveBlur" x="-20%" y="-20%" width="140%" height="140%">
      <feGaussianBlur stdDeviation="6"></feGaussianBlur>
    </filter>
  </defs>

  <!-- base gradient -->
  <rect width="100%" height="100%" fill="url(#bgGrad)"></rect>

  <!-- layered wavy shapes -->
  <g filter="url(#waveBlur)" opacity="0.98">
    <!-- furthest, darker wave -->
    <path fill="#4fb54f" opacity="0.18" d="
      M0,760 
      C240,680 480,790 840,745
      C1200,700 1500,820 1920,760
      L1920,1100 L0,1100 Z"></path>

    <!-- middle wave, slightly lighter -->
    <path fill="#74d174" opacity="0.22" d="
      M0,640 
      C300,560 620,720 980,680
      C1320,640 1540,740 1920,700
      L1920,1100 L0,1100 Z"></path>

    <!-- front, brightest wave -->
    <path fill="#b9ffbf" opacity="0.45" d="
      M0,520
      C220,460 540,620 900,580
      C1260,540 1600,650 1920,600
      L1920,1100 L0,1100 Z"></path>
  </g>

  <!-- subtle vertical highlight band -->
  <rect x="0" y="0" width="100%" height="100%" fill="url(#vignette)" opacity="0.45"></rect>

  <!-- optional overlay for depth -->
  <rect width="100%" height="100%" fill="url(#bgGrad)" opacity="0.04"></rect>
</svg>
